HIERARCHY
ROOT Hips
{
	OFFSET 0.0000 0.0000 0.0000
	CHANNELS 6 Xposition Yposition Zposition Zrotation Xrotation Yrotation
	JOINT Ab
	{
		OFFSET -0.0000 8.1305 -0.0000
		CHANNELS 3 Zrotation Xrotation Yrotation
		JOINT Chest
		{
			OFFSET -0.0000 26.2902 -0.0000
			CHANNELS 3 Zrotation Xrotation Yrotation
			JOINT Neck
			{
				OFFSET -0.0000 26.2902 0.0000
				CHANNELS 3 Zrotation Xrotation Yrotation
				JOINT Head
				{
					OFFSET -0.0000 10.8167 0.0000
					CHANNELS 3 Zrotation Xrotation Yrotation
					End Site
					{
						OFFSET -0.0000 16.7167 0.0000
					}
				}
			}
			JOINT LeftCollar
			{
				OFFSET -0.0000 26.2902 0.0000
				CHANNELS 3 Zrotation Xrotation Yrotation
				JOINT LeftShoulder
				{
					OFFSET 19.6667 -0.0000 0.0000
					CHANNELS 3 Zrotation Xrotation Yrotation
					JOINT LeftElbow
					{
						OFFSET 27.2190 0.0000 0.0000
						CHANNELS 3 Zrotation Xrotation Yrotation
						JOINT LeftWrist
						{
							OFFSET 30.7431 0.0000 0.0000
							CHANNELS 3 Zrotation Xrotation Yrotation
							End Site
							{
								OFFSET 0.0000 -14.7500 0.0000
							}
						}
					}
				}
			}
			JOINT RightCollar
			{
				OFFSET -0.0000 26.2902 0.0000
				CHANNELS 3 Zrotation Xrotation Yrotation
				JOINT RightShoulder
				{
					OFFSET -19.6667 0.0000 0.0000
					CHANNELS 3 Zrotation Xrotation Yrotation
					JOINT RightElbow
					{
						OFFSET -27.2190 0.0000 0.0000
						CHANNELS 3 Zrotation Xrotation Yrotation
						JOINT RightWrist
						{
							OFFSET -30.7431 0.0000 0.0000
							CHANNELS 3 Zrotation Xrotation Yrotation
							End Site
							{
								OFFSET -0.0000 -14.7500 0.0000
							}
						}
					}
				}
			}
		}
	}
	JOINT LeftHip
	{
		OFFSET 11.8000 0.0000 0.0000
		CHANNELS 3 Zrotation Xrotation Yrotation
		JOINT LeftKnee
		{
			OFFSET -0.0000 -39.7832 0.0000
			CHANNELS 3 Zrotation Xrotation Yrotation
			JOINT LeftAnkle
			{
				OFFSET -0.0000 -41.7317 0.0000
				CHANNELS 3 Zrotation Xrotation Yrotation
				End Site
				{
					OFFSET -0.0000 -4.9167 16.7167
				}
			}
		}
	}
	JOINT RightHip
	{
		OFFSET -11.8000 0.0000 0.0000
		CHANNELS 3 Zrotation Xrotation Yrotation
		JOINT RightKnee
		{
			OFFSET -0.0000 -39.7832 0.0000
			CHANNELS 3 Zrotation Xrotation Yrotation
			JOINT RightAnkle
			{
				OFFSET -0.0000 -41.7317 0.0000
				CHANNELS 3 Zrotation Xrotation Yrotation
				End Site
				{
					OFFSET -0.0000 -4.9167 16.7167
				}
			}
		}
	}
}
MOTION
Frames: 13
Frame Time: 0.010000
-11.1109 84.7030 69.2691 353.2824 346.3347 203.0050 359.0791 348.3762 357.8676 357.3043 15.0176 358.3139 345.3426 345.0929 351.1628 10.0592 5.8757 352.5667 336.7295 357.0409 14.2816 334.6587 53.2067 330.6730 12.2946 354.1516 310.1315 90.8286 356.9333 346.6823 27.4434 356.1204 344.1862 48.2310 35.5048 354.5991 341.8816 353.6814 38.2756 273.3648 355.1332 13.2292 356.9879 15.2392 358.8413 357.3224 6.0760 0.7170 347.5902 344.5683 11.6222 325.6909 325.6355 356.4487 17.9345 22.9533 4.0089 356.8972 342.4622 314.3385 
-10.9151 84.5910 68.3099 353.3624 345.9300 203.0406 359.5190 348.2902 357.9181 357.2081 14.9612 358.3327 345.2671 344.6183 351.1073 9.8280 5.7896 352.6017 336.4464 357.0096 14.2000 334.8382 52.9560 330.7980 12.4102 354.1432 309.9499 91.0577 357.0095 346.8735 27.6168 356.0843 344.1659 47.9673 35.5464 354.7144 341.9568 353.7434 37.9686 273.4173 355.0974 13.3453 357.2009 15.1276 358.7513 357.3789 6.4798 1.3096 346.9578 345.0943 11.4567 324.8844 324.7573 355.1803 19.3481 25.0359 3.7700 357.4925 341.6859 314.7603 
-10.6934 84.5169 67.3348 353.5889 345.5751 203.0214 0.0326 348.1527 358.0211 357.2526 14.9922 358.3810 345.2371 344.1542 351.0702 9.5214 5.6648 352.6588 336.1927 356.9962 13.9875 334.4847 52.5011 331.4125 12.4033 354.1963 309.7072 91.3465 356.9566 346.7350 27.6367 356.0622 344.0913 47.8221 35.7792 354.9741 341.7927 353.7021 37.5387 273.6005 355.1382 13.2152 357.5692 15.0244 358.8669 357.3918 6.9121 1.3674 346.4270 345.4953 11.7947 324.3069 323.8438 353.8450 20.6393 27.1217 3.5510 358.0008 340.9268 315.2294 
-10.4477 84.4709 66.3213 353.9469 345.3373 202.9490 0.6308 348.0146 358.1475 357.4263 15.0991 358.4238 345.2903 343.7056 351.0684 9.0564 5.5509 352.7431 335.8701 356.9995 13.6317 333.8309 51.8083 332.6307 12.1618 354.3108 309.1047 91.7248 357.0245 346.3566 27.6401 356.0850 344.1450 47.6779 35.8845 355.0970 341.6499 353.7039 37.1646 273.7724 355.3023 13.1330 358.1672 15.0614 359.1171 357.2924 7.0587 1.6189 345.9075 346.1644 11.9610 324.1508 323.0846 352.7243 21.5701 28.8681 3.1796 358.6503 340.4894 316.0758 
-10.2273 84.4500 65.3106 354.2277 345.1599 202.8743 1.1477 348.0217 358.2256 357.6918 15.0740 358.4119 345.3652 343.3129 351.0929 8.4848 5.5490 352.8319 335.9919 357.1150 13.2278 332.1397 52.1513 334.1046 13.1149 353.5989 309.0746 91.3864 356.8795 346.2318 27.4477 356.1400 344.3253 47.9636 35.9084 355.0060 341.3363 353.6288 36.6953 274.0143 355.2702 13.1716 358.6883 15.2073 359.5356 357.2359 7.1896 1.8184 344.5573 347.0290 11.9478 324.1072 322.5373 351.5376 22.0819 30.4754 2.9436 359.3275 340.3095 317.0697 
-9.9935 84.4652 64.2674 354.4320 344.9323 202.7660 1.4033 348.0729 358.2981 358.1820 14.8515 358.3922 345.3451 343.1222 351.1555 7.9982 5.6030 352.9517 335.6972 357.1233 13.0460 331.7937 52.0460 334.8452 13.0835 353.7141 308.8845 91.6545 357.0462 346.5483 27.3008 356.1895 344.4608 47.8200 36.0266 354.9852 341.2210 353.6694 36.4572 274.1037 355.5487 12.9332 359.1271 15.3741 0.1238 357.2068 7.1975 2.2553 343.1197 348.3018 11.6171 324.1748 322.1876 350.6974 22.4490 31.6929 2.9433 0.1481 340.0077 317.6883 
-9.7988 84.5216 63.2025 354.4444 344.7258 202.6904 1.5761 348.1216 358.2897 358.4964 14.7028 358.3184 345.2723 343.1740 351.2195 7.9632 5.5129 353.0313 335.6048 357.1543 12.9455 331.6739 52.2906 335.2004 13.1684 353.6652 308.8189 91.8487 357.1527 346.7284 27.1783 356.2214 344.4874 47.7431 36.5185 355.1100 340.8965 353.5992 35.9985 274.0723 355.6953 12.5658 359.3755 15.6449 0.7868 357.2290 7.1503 2.5135 342.6733 349.6976 11.4345 324.2296 322.1732 349.9371 22.6708 32.5971 3.1512 0.2811 339.7744 318.0220 
-9.6118 84.6146 62.1326 354.3351 344.5187 202.7149 1.5850 348.1748 358.2714 358.8578 14.5551 358.2514 345.1662 343.3220 351.2545 7.8334 5.5386 353.0706 335.6731 357.1895 12.8399 331.3816 52.9042 335.4355 13.4578 353.4868 309.0215 91.7831 357.1864 346.9551 27.0771 356.2445 344.4823 47.5169 36.8055 355.3549 340.6680 353.6014 35.5993 274.4377 355.9345 12.2362 359.4921 15.8653 1.3538 357.3135 7.1799 3.1403 342.9076 351.4302 11.0095 324.2528 322.4091 349.4043 22.9032 33.2537 3.3863 359.6819 339.7514 318.1624 
-9.4307 84.7471 61.0835 354.1724 344.3178 202.8123 1.6420 348.2728 358.1746 358.9693 14.3861 358.1311 345.3063 343.3729 351.3471 7.7020 5.7630 353.1258 335.9046 357.2344 12.9154 331.4708 53.6772 335.0958 13.7290 353.3659 309.4210 91.7203 357.2147 347.3601 27.1045 356.2376 344.4597 47.2469 36.9710 355.6326 340.5790 353.6592 35.3388 274.4818 356.1822 12.2447 359.5950 15.9324 1.4729 357.3291 7.3993 4.1014 342.7090 352.8160 10.4029 324.2797 322.8261 349.1427 23.1809 33.6979 3.9413 359.0824 339.5503 317.7677 
-9.2210 84.9015 60.0311 354.0315 344.0790 203.0271 1.5591 348.3878 358.0570 359.1943 14.0710 357.9933 345.7491 343.4926 351.5336 7.1441 5.9672 353.2423 336.1113 357.2481 13.0090 331.4144 54.2352 334.9778 13.7378 353.4517 309.7104 91.6285 357.2030 347.5407 27.1026 356.2174 344.3289 46.9027 37.1716 356.0714 340.5114 353.7148 35.0513 274.4980 356.3477 12.3127 359.6895 15.8597 1.6980 357.4142 7.7559 4.4266 343.5897 353.7301 10.0978 324.3525 323.3035 349.2578 23.5248 33.9660 4.4062 358.4330 339.2155 317.0199 
-9.0009 85.0907 58.9978 353.9094 343.8195 203.2187 1.4923 348.4823 357.9800 359.3771 13.7951 357.9019 346.1004 343.4358 351.6375 6.6959 6.3319 353.3039 336.2797 357.2507 13.0904 331.3849 54.5309 334.8999 13.4463 353.7032 309.8551 91.7972 357.1832 347.5284 27.1860 356.1665 344.1965 46.4026 37.1589 356.5830 340.5425 353.7762 34.9114 274.6896 356.5691 12.6587 359.7350 15.6101 1.7343 357.5485 8.3135 4.4725 344.9472 354.9591 10.2498 324.5489 323.7149 349.6424 23.8358 34.0916 4.3848 357.9048 338.9159 316.5829 
-8.7781 85.3060 57.9989 353.8560 343.5350 203.4307 1.4822 348.5363 357.9129 359.5039 13.4954 357.8202 346.5163 343.5356 351.7335 6.2598 6.5225 353.3408 336.4769 357.2753 13.0895 331.1271 54.6816 335.0142 13.0114 354.0134 310.0172 91.7708 357.0731 347.0356 27.2719 356.1261 344.1453 46.0493 36.9845 356.9083 340.5376 353.7866 34.9706 274.7604 356.7276 12.9055 359.7344 15.1587 1.7825 357.7141 9.0397 4.6323 347.8085 356.4499 10.3321 324.8106 324.0931 350.1557 24.1751 34.0644 4.1458 357.3753 338.7037 316.2442 
-8.5650 85.5466 57.0376 353.8358 343.2397 203.6016 1.5009 348.5827 357.8614 359.6391 13.1565 357.7506 346.8396 343.7310 351.8345 5.9391 6.5930 353.3919 336.6425 357.3072 13.0023 330.5929 54.6941 335.4623 12.4911 354.3385 310.0790 91.7034 357.0426 346.3779 27.3654 356.1175 344.2085 45.5944 36.6442 357.1945 340.6074 353.8150 35.1396 275.0226 356.8361 13.2594 359.6732 14.6106 1.8118 357.8702 9.7412 4.7561 349.7812 357.3205 10.7072 325.1482 324.4035 350.5851 24.4110 34.0135 3.7210 356.7406 338.5782 316.0931 
